<?xml version="1.0" encoding="utf-8"?>
<!-- Generator: Adobe Illustrator 23.0.1, SVG Export Plug-In . SVG Version: 6.00 Build 0)  -->
<svg version="1.1" id="Layer_1" xmlns="http://www.w3.org/2000/svg" xmlns:xlink="http://www.w3.org/1999/xlink" x="0px" y="0px"
	 viewBox="0 0 500 500" style="enable-background:new 0 0 500 500;" xml:space="preserve">
<g>
	<g>
		<g>
			<path d="M393.74,177.92H106.25l-30.39-31.46V72.35h348.28v74.11L393.74,177.92z M111.91,164.59h276.18l22.71-23.51V85.69H89.19
				v55.39L111.91,164.59z"/>
		</g>
		<g>
			<path d="M82.52,109.96H6.67c-3.68,0-6.67-2.98-6.67-6.67v0c0-3.68,2.98-6.67,6.67-6.67h75.86V109.96z"/>
		</g>
		<g>
			<path d="M493.33,109.96h-75.86V96.63h75.86c3.68,0,6.67,2.98,6.67,6.67v0C500,106.98,497.02,109.96,493.33,109.96z"/>
		</g>
	</g>
	<g>
		<g>
			<polygon points="272.51,302.92 226.27,302.92 185.69,232.58 185.69,189.46 199.02,189.46 199.02,229.01 233.97,289.59 
				264.82,289.59 299.77,229.01 299.77,189.46 313.1,189.46 313.1,232.58 			"/>
		</g>
		<g>
			<rect x="193.57" y="224.05" width="114.08" height="13.33"/>
		</g>
	</g>
	<g>
		<path d="M361.72,426.71H105.28c-14.41,0-26.08-11.68-26.08-26.08v-2.43c0-14.41,11.68-26.08,26.08-26.08h245.15
			c7.04,0,12.75-5.71,12.75-12.75v-2.42c0-7.04-5.71-12.75-12.75-12.75h-80.1c-14.38,0-26.08-11.71-26.08-26.09h13.34
			c0,7.03,5.72,12.75,12.75,12.75h80.1c14.4,0,26.08,11.68,26.08,26.08v2.43c0,14.4-11.68,26.08-26.08,26.08H105.28
			c-7.04,0-12.75,5.71-12.75,12.75v2.43c0,7.04,5.71,12.75,12.75,12.75h256.44c3.68,0,6.67,2.98,6.67,6.67v0
			C368.39,423.72,365.4,426.71,361.72,426.71z"/>
	</g>
</g>
</svg>
