<?xml version="1.0" encoding="utf-8"?>
<!-- Generator: Adobe Illustrator 23.0.1, SVG Export Plug-In . SVG Version: 6.00 Build 0)  -->
<svg version="1.1" id="Layer_1" xmlns="http://www.w3.org/2000/svg" xmlns:xlink="http://www.w3.org/1999/xlink" x="0px" y="0px"
	 viewBox="0 0 500 500" style="enable-background:new 0 0 500 500;" xml:space="preserve">
<g>
	<g>
		<g>
			<path d="M393.7,177.9H106.3l-30.4-31.5V72.4h348.3v74.1L393.7,177.9z M111.9,164.6h276.2l22.7-23.5V85.7H89.2v55.4L111.9,164.6z"
				/>
		</g>
		<g>
			<path d="M82.5,110H6.7C3,110,0,107,0,103.3v0c0-3.7,3-6.7,6.7-6.7h75.9V110z"/>
		</g>
		<g>
			<path d="M493.3,110h-75.9V96.6h75.9c3.7,0,6.7,3,6.7,6.7v0C500,107,497,110,493.3,110z"/>
		</g>
	</g>
	<g>
		<g>
			<polygon points="272.5,302.9 226.3,302.9 185.7,232.6 185.7,171.3 199,171.3 199,229 234,289.6 264.8,289.6 299.8,229 
				299.8,171.3 313.1,171.3 313.1,232.6 			"/>
		</g>
		<g>
			<rect x="193.6" y="224.1" width="114.1" height="13.3"/>
		</g>
	</g>
	<g>
		<path d="M361.7,426.7H105.3c-14.4,0-26.1-11.7-26.1-26.1v-2.4c0-14.4,11.7-26.1,26.1-26.1h245.1c7,0,12.7-5.7,12.7-12.7v-2.4
			c0-7-5.7-12.7-12.7-12.7h-70.5c-19.7,0-35.6-16-35.6-35.6v-12.3h13.3v12.3c0,12.3,10,22.3,22.3,22.3h70.5
			c14.4,0,26.1,11.7,26.1,26.1v2.4c0,14.4-11.7,26.1-26.1,26.1H105.3c-7,0-12.8,5.7-12.8,12.8v2.4c0,7,5.7,12.7,12.7,12.7h256.4
			c3.7,0,6.7,3,6.7,6.7v0C368.4,423.7,365.4,426.7,361.7,426.7z"/>
	</g>
</g>
</svg>
