<?xml version="1.0" encoding="utf-8"?>
<!-- Generator: Adobe Illustrator 23.0.1, SVG Export Plug-In . SVG Version: 6.00 Build 0)  -->
<svg version="1.1" id="Layer_1" xmlns="http://www.w3.org/2000/svg" xmlns:xlink="http://www.w3.org/1999/xlink" x="0px" y="0px"
	 viewBox="0 0 500 500" style="enable-background:new 0 0 500 500;" xml:space="preserve">
<g>
	<g>
		<path d="M250,479.36c-4.57,0-9.14-1.17-13.22-3.53l-125.36-72.38c-8.16-4.71-13.22-13.48-13.22-22.9V235.8
			c0-9.41,5.06-18.19,13.22-22.89l125.36-72.38c8.16-4.71,18.28-4.71,26.44,0l125.36,72.38c8.15,4.71,13.22,13.49,13.22,22.9v144.76
			c0,9.41-5.07,18.18-13.22,22.89l-125.36,72.38C259.14,478.18,254.57,479.36,250,479.36z M243.39,151.97l-125.36,72.38
			c-4.08,2.35-6.61,6.74-6.61,11.45v144.76c0,4.71,2.53,9.09,6.61,11.45l125.36,72.37c4.08,2.36,9.14,2.36,13.22,0L381.97,392
			c4.07-2.35,6.61-6.74,6.61-11.45V235.8c0-4.71-2.54-9.09-6.61-11.45l-125.36-72.37C252.54,149.62,247.47,149.62,243.39,151.97
			L243.39,151.97z"/>
	</g>
	<g>
		<path d="M0.89,452L0.89,452c-1.82-3.16-0.74-7.2,2.42-9.03l98.2-56.7l6.61,11.45l-98.2,56.7C6.75,456.25,2.71,455.16,0.89,452z"/>
	</g>
	<g>
		<rect x="238.96" y="259.27" transform="matrix(0.868 -0.4965 0.4965 0.868 -89.4365 195.2577)" width="167.26" height="13.22"/>
	</g>
	<g>
		<path d="M256.61,140.64h-13.22V27.25c0-3.65,2.96-6.61,6.61-6.61l0,0c3.65,0,6.61,2.96,6.61,6.61V140.64z"/>
	</g>
	<g>
		<path d="M490.08,454.42l-98.2-56.7l6.61-11.45l98.2,56.7c3.16,1.83,4.24,5.87,2.42,9.03l0,0
			C497.29,455.16,493.25,456.25,490.08,454.42z"/>
	</g>
	<g>
		<polygon points="246.6,313.07 244.84,312.01 101.53,230.09 108.09,218.61 253.4,301.73 		"/>
	</g>
	<g>
		<rect x="243.39" y="307.4" width="13.22" height="168.43"/>
	</g>
</g>
</svg>
