<?xml version="1.0" encoding="utf-8"?>
<!-- Generator: Adobe Illustrator 23.0.1, SVG Export Plug-In . SVG Version: 6.00 Build 0)  -->
<svg version="1.1" id="Layer_1" xmlns="http://www.w3.org/2000/svg" xmlns:xlink="http://www.w3.org/1999/xlink" x="0px" y="0px"
	 viewBox="0 0 500 500" style="enable-background:new 0 0 500 500;" xml:space="preserve">
<g>
	<g>
		<g>
			<path d="M252.7,370.49c-4.05,0-7.97-1.59-11.01-4.63c-4.52-4.53-5.84-11.03-3.45-16.96l30.19-74.95l156.73-156.73
				c6.24-6.24,14.54-9.68,23.37-9.68c8.83,0,17.13,3.44,23.37,9.68l18.42,18.42c12.89,12.89,12.89,33.86,0,46.74L333.61,339.11
				l-74.95,30.2C256.7,370.1,254.69,370.49,252.7,370.49z M280.37,281.83l-29.13,72.31c-0.27,0.68-0.15,1.29,0.37,1.81
				c0.53,0.53,1.13,0.64,1.82,0.37l72.31-29.14l154.7-154.71c7.42-7.42,7.42-19.51,0-26.93l-18.42-18.42c-7.2-7.2-19.74-7.2-26.93,0
				L280.37,281.83z"/>
		</g>
		<g>
			
				<rect x="297.65" y="259.48" transform="matrix(0.7071 -0.7071 0.7071 0.7071 -124.9511 304.1393)" width="14.01" height="86.83"/>
		</g>
	</g>
	<g>
		<path d="M395.72,163.54h-14.01v-13.1c0-7.73-6.29-14.01-14.01-14.01H224.33v-14.01h143.37c15.45,0,28.02,12.57,28.02,28.02V163.54
			z"/>
	</g>
	<g>
		<path d="M367.71,451.61H101.56c-15.45,0-28.02-12.56-28.02-28.02V273.22h14.01V423.6c0,7.72,6.28,14.01,14.01,14.01h266.15
			c7.72,0,14.01-6.29,14.01-14.01V274.13h14.01V423.6C395.72,439.05,383.16,451.61,367.71,451.61z"/>
	</g>
	<g>
		<path d="M119.07,287.02C53.41,287.02,0,233.61,0,167.95S53.41,48.89,119.07,48.89s119.07,53.41,119.07,119.07
			S184.72,287.02,119.07,287.02z M119.07,62.9c-57.93,0-105.06,47.13-105.06,105.06s47.13,105.06,105.06,105.06
			s105.06-47.13,105.06-105.06S177,62.9,119.07,62.9z"/>
	</g>
	<g>
		<polygon points="108.56,207.82 73.69,172.95 83.6,163.05 108.56,188.02 158.09,138.49 167.99,148.39 		"/>
	</g>
</g>
</svg>
