<?xml version="1.0" encoding="utf-8"?>
<!-- Generator: Adobe Illustrator 23.0.1, SVG Export Plug-In . SVG Version: 6.00 Build 0)  -->
<svg version="1.1" id="Layer_1" xmlns="http://www.w3.org/2000/svg" xmlns:xlink="http://www.w3.org/1999/xlink" x="0px" y="0px"
	 viewBox="0 0 500 500" style="enable-background:new 0 0 500 500;" xml:space="preserve">
<g>
	<g>
		<g>
			<path d="M500,470.08h-13.52V138.78c0-7.46-6.07-13.52-13.52-13.52H369.37v-13.52h103.58c14.92,0,27.04,12.13,27.04,27.04V470.08z
				"/>
		</g>
		<g>
			<path d="M204,443.03H67.29c-14.91,0-27.04-12.13-27.04-27.04V279.21h13.52v136.78c0,7.45,6.06,13.52,13.52,13.52H204V443.03z"/>
		</g>
		<g>
			<path d="M462.81,503.88h-37.19v-60.85h13.52v47.33h23.66c13.05,0,23.66-10.62,23.66-23.66c0-6.36-2.46-12.29-6.91-16.68
				c-4.46-4.52-10.39-6.98-16.75-6.98H305.08v-13.52h157.74c10,0,19.35,3.88,26.31,10.94c6.99,6.9,10.87,16.24,10.87,26.25
				C500,487.2,483.32,503.88,462.81,503.88z"/>
		</g>
		<g>
			<path d="M53.77,187.53H40.25v-48.75c0-14.91,12.13-27.04,27.04-27.04h216.08v13.52H67.29c-7.46,0-13.52,6.06-13.52,13.52V187.53z
				"/>
		</g>
	</g>
	<g>
		<g>
			<path d="M254.53,487.94c-5.42,0-10.51-2.11-14.34-5.94l0,0c0,0,0,0,0,0L5.93,247.74c-7.91-7.91-7.91-20.78,0-28.69l43.03-43.03
				c7.66-7.67,21.02-7.67,28.69,0L311.9,410.29c3.83,3.83,5.94,8.93,5.94,14.34c0,5.41-2.11,10.51-5.94,14.34L268.88,482
				C265.05,485.83,259.95,487.94,254.53,487.94z M63.3,183.61c-1.81,0-3.5,0.7-4.78,1.98l-43.03,43.03c-2.63,2.64-2.63,6.93,0,9.56
				l234.26,234.26c2.55,2.56,6.99,2.56,9.56,0l43.02-43.03c2.63-2.63,2.63-6.93,0-9.56L68.08,185.59
				C66.8,184.31,65.11,183.61,63.3,183.61z"/>
		</g>
		<g>
			<rect x="69.31" y="219.47" transform="matrix(0.7071 -0.7071 0.7071 0.7071 -133.7256 129.6127)" width="40.57" height="13.52"/>
		</g>
		<g>
			
				<rect x="112.34" y="262.49" transform="matrix(0.7071 -0.7071 0.7071 0.7071 -151.5477 172.6414)" width="40.57" height="13.52"/>
		</g>
		<g>
			
				<rect x="155.37" y="305.52" transform="matrix(0.7071 -0.7071 0.7071 0.7071 -169.3696 215.6673)" width="40.56" height="13.52"/>
		</g>
		<g>
			<rect x="198.4" y="348.55" transform="matrix(0.7071 -0.7071 0.7071 0.7071 -187.1928 258.6965)" width="40.56" height="13.52"/>
		</g>
		<g>
			
				<rect x="241.42" y="391.58" transform="matrix(0.7071 -0.7071 0.7071 0.7071 -205.0147 301.7224)" width="40.57" height="13.52"/>
		</g>
	</g>
	<g>
		<g>
			<path d="M216.54,241.89c-3.52,0-6.97-1.38-9.56-3.97c-3.84-3.84-5-9.58-2.97-14.61l23.61-58.61L388.4,3.92
				C393.51-1.19,400.29-4,407.52-4c7.22,0,14.02,2.81,19.12,7.92l14.35,14.34c10.54,10.54,10.54,27.7,0,38.25L280.2,217.29
				l-58.6,23.61C219.95,241.57,218.24,241.89,216.54,241.89z M239.13,172.31l-22.59,56.05c-0.01,0.04-0.02,0.06-0.02,0.06
				l56.06-22.64L431.43,46.95c5.27-5.27,5.27-13.85,0-19.12l-14.35-14.34c-5.11-5.1-14.01-5.1-19.12,0L239.13,172.31z"/>
		</g>
		<g>
			<rect x="379.24" y="25.09" transform="matrix(0.7071 -0.7071 0.7071 0.7071 71.4095 290.1964)" width="13.52" height="67.61"/>
		</g>
		<g>
			<rect x="250.16" y="154.17" transform="matrix(0.7071 -0.7071 0.7071 0.7071 -57.6726 236.7196)" width="13.52" height="67.61"/>
		</g>
	</g>
	<g>
		<rect x="222.8" y="226.68" width="121.7" height="13.52"/>
	</g>
	<g>
		<rect x="354.64" y="226.68" width="20.28" height="13.52"/>
	</g>
	<g>
		<rect x="388.44" y="226.68" width="20.28" height="13.52"/>
	</g>
</g>
</svg>
