<?xml version="1.0" encoding="utf-8"?>
<!-- Generator: Adobe Illustrator 23.0.1, SVG Export Plug-In . SVG Version: 6.00 Build 0)  -->
<svg version="1.1" id="Layer_1" xmlns="http://www.w3.org/2000/svg" xmlns:xlink="http://www.w3.org/1999/xlink" x="0px" y="0px"
	 viewBox="0 0 500 500" style="enable-background:new 0 0 500 500;" xml:space="preserve">
<style type="text/css">
	.st0{fill:#207245;}
	.st1{fill:#FFFFFF;}
</style>
<g>
	<path id="path10" class="st0" d="M261.5,5.77h33.74c0,15.17,0,30.27,0,45.44c56.86,0,113.71,0.11,170.57-0.17
		c9.6,0.4,20.16-0.28,28.51,5.45c5.85,8.41,5.17,19.08,5.57,28.74c-0.28,98.6-0.17,197.15-0.11,295.69
		c-0.28,16.53,1.53,33.4-1.93,49.7c-2.27,11.81-16.47,12.1-25.96,12.5c-58.84,0.17-117.74-0.11-176.64,0c0,17.04,0,34.08,0,51.12
		h-35.27C173.41,478.5,86.67,463.96,0,448.8C0,316.28,0,183.77,0,51.26C87.19,36.1,174.37,21.16,261.5,5.77z"/>
	<path id="path48" class="st1" d="M295.24,68.24c62.48,0,124.96,0,187.44,0c0,119.28,0,238.55,0,357.83c-62.48,0-124.96,0-187.44,0
		c0-11.36,0-22.72,0-34.08c15.17,0,30.27,0,45.44,0c0-13.23,0-26.52,0-39.76c-15.17,0-30.27,0-45.44,0c0-7.55,0-15.17,0-22.72
		c15.17,0,30.27,0,45.44,0c0-13.23,0-26.53,0-39.76c-15.17,0-30.27,0-45.44,0c0-7.55,0-15.17,0-22.72c15.17,0,30.27,0,45.44,0
		c0-13.23,0-26.53,0-39.76c-15.17,0-30.27,0-45.44,0c0-7.55,0-15.17,0-22.72c15.17,0,30.27,0,45.44,0c0-13.23,0-26.53,0-39.76
		c-15.17,0-30.27,0-45.44,0c0-7.55,0-15.17,0-22.72c15.17,0,30.27,0,45.44,0c0-13.23,0-26.53,0-39.76c-15.17,0-30.27,0-45.44,0
		C295.24,90.96,295.24,79.6,295.24,68.24z"/>
	<path id="path58" class="st0" d="M363.4,102.32c26.53,0,52.99,0,79.52,0c0,13.23,0,26.53,0,39.76c-26.53,0-52.99,0-79.52,0
		C363.4,128.85,363.4,115.56,363.4,102.32z"/>
	<path id="path72" class="st1" d="M168.24,155.54c12.84-0.91,25.73-1.7,38.62-2.33c-15.17,31.07-30.39,62.14-45.84,93.09
		c15.62,31.81,31.58,63.39,47.26,95.19c-13.69-0.8-27.32-1.65-41.01-2.61c-9.66-23.69-21.41-46.57-28.34-71.34
		c-7.72,23.06-18.74,44.81-27.6,67.42c-12.44-0.17-24.88-0.68-37.32-1.19c14.6-28.57,28.68-57.37,43.74-85.77
		c-12.78-29.25-26.81-57.93-39.99-87.02c12.5-0.74,24.99-1.48,37.49-2.16c8.46,22.21,17.72,44.13,24.71,66.91
		C147.45,201.61,158.64,178.89,168.24,155.54z"/>
	<path id="path90" class="st0" d="M363.4,164.8c26.53,0,52.99,0,79.52,0c0,13.23,0,26.53,0,39.76c-26.53,0-52.99,0-79.52,0
		C363.4,191.33,363.4,178.04,363.4,164.8z"/>
	<path id="path108" class="st0" d="M363.4,227.28c26.53,0,52.99,0,79.52,0c0,13.23,0,26.53,0,39.76c-26.53,0-52.99,0-79.52,0
		C363.4,253.81,363.4,240.51,363.4,227.28z"/>
	<path id="path114" class="st0" d="M363.4,289.76c26.53,0,52.99,0,79.52,0c0,13.23,0,26.52,0,39.76c-26.53,0-52.99,0-79.52,0
		C363.4,316.28,363.4,302.99,363.4,289.76z"/>
	<path id="path120" class="st0" d="M363.4,352.24c26.53,0,52.99,0,79.52,0c0,13.23,0,26.53,0,39.76c-26.53,0-52.99,0-79.52,0
		C363.4,378.76,363.4,365.47,363.4,352.24z"/>
</g>
</svg>
