<?xml version="1.0" encoding="utf-8"?>
<!-- Generator: Adobe Illustrator 23.0.1, SVG Export Plug-In . SVG Version: 6.00 Build 0)  -->
<svg version="1.1" id="Layer_1" xmlns="http://www.w3.org/2000/svg" xmlns:xlink="http://www.w3.org/1999/xlink" x="0px" y="0px"
	 viewBox="0 0 500 500" style="enable-background:new 0 0 500 500;" xml:space="preserve">
<style type="text/css">
	.st0{fill:#264DE4;}
	.st1{fill:#2965F1;}
	.st2{fill:#EBEBEB;}
	.st3{fill:#FFFFFF;}
	.st4{fill:#E44D26;}
	.st5{fill:#F16529;}
</style>
<g>
	<g>
		<polygon id="polygon2989" class="st0" points="385.28,379.94 291.7,353.96 270.85,120.06 500,120.06 479.12,353.93 		"/>
		<polygon id="polygon2991" class="st1" points="461.25,339.04 479.09,139.18 385.42,139.18 385.42,360.06 		"/>
		<polygon id="polygon2993" class="st2" points="318.65,225.94 321.23,254.62 385.42,254.62 385.42,225.94 		"/>
		<polygon id="polygon2995" class="st2" points="313.49,167.87 316.1,196.56 385.42,196.56 385.42,167.87 385.32,167.87 		"/>
		<polygon id="polygon2997" class="st2" points="385.42,300.44 385.3,300.47 353.35,291.85 351.3,268.97 335.78,268.97 
			322.51,268.97 326.53,314.01 385.29,330.32 385.42,330.29 		"/>
		<polygon id="polygon3005" class="st3" points="452.01,225.94 457.19,167.87 385.32,167.87 385.32,196.56 425.75,196.56 
			423.14,225.94 385.32,225.94 385.32,254.62 420.65,254.62 417.32,291.83 385.32,300.46 385.32,330.31 444.14,314.01 
			444.57,309.16 451.31,233.64 		"/>
	</g>
	<g>
		<polygon id="polygon3028" class="st4" points="229.15,120.06 208.28,353.93 114.44,379.94 20.85,353.96 0,120.06 		"/>
		<polygon id="polygon3030" class="st5" points="114.58,360.06 190.41,339.04 208.25,139.18 114.58,139.18 		"/>
		<polygon id="polygon3032" class="st2" points="73.99,196.56 114.58,196.56 114.58,167.87 114.48,167.87 42.64,167.87 
			43.33,175.57 50.38,254.62 114.58,254.62 114.58,225.94 76.62,225.94 		"/>
		<polygon id="polygon3034" class="st2" points="80.46,268.97 64.93,268.97 51.66,268.97 55.68,314.01 114.45,330.32 114.58,330.29 
			114.58,300.44 114.45,300.47 82.5,291.85 		"/>
		<polygon id="polygon3044" class="st3" points="114.48,254.62 149.8,254.62 146.47,291.83 114.48,300.46 114.48,330.31 
			173.29,314.01 173.72,309.16 180.46,233.64 181.16,225.94 173.43,225.94 114.48,225.94 		"/>
		<polygon id="polygon3046" class="st3" points="114.48,196.49 114.48,196.56 183.68,196.56 183.68,196.56 183.77,196.56 
			184.35,190.11 185.66,175.57 186.34,167.87 114.48,167.87 114.48,185.69 		"/>
	</g>
</g>
</svg>
