<?xml version="1.0" encoding="utf-8"?>
<!-- Generator: Adobe Illustrator 23.0.1, SVG Export Plug-In . SVG Version: 6.00 Build 0)  -->
<svg version="1.1" id="Layer_1" xmlns="http://www.w3.org/2000/svg" xmlns:xlink="http://www.w3.org/1999/xlink" x="0px" y="0px"
	 viewBox="0 0 500 500" style="enable-background:new 0 0 500 500;" xml:space="preserve">
<style type="text/css">
	.st0{fill:url(#SVGID_1_);}
	.st1{fill:url(#SVGID_2_);}
	.st2{fill:url(#SVGID_3_);}
</style>
<g>
	<linearGradient id="SVGID_1_" gradientUnits="userSpaceOnUse" x1="252.7721" y1="483.8288" x2="252.7721" y2="14.1647">
		<stop  offset="0" style="stop-color:#0044FF"/>
		<stop  offset="1" style="stop-color:#33CCFF"/>
	</linearGradient>
	<circle class="st0" cx="252.77" cy="249" r="234.83"/>
	<g>
		<radialGradient id="SVGID_2_" cx="250" cy="250" r="250" gradientUnits="userSpaceOnUse">
			<stop  offset="0.95" style="stop-color:#F2F2F2"/>
			<stop  offset="1" style="stop-color:#CCCBCB"/>
		</radialGradient>
		<path class="st1" d="M250,0C111.93,0,0,111.93,0,250s111.93,250,250,250s250-111.93,250-250S388.07,0,250,0z M368.31,54.21
			c33.88,20.29,58.7,45.21,78.85,79.17c14.27,24.06,23.43,48.7,28.33,76.25c1.22,6.86-0.14,11.71-4.76,16.93
			c-26.65,30.13-56.18,54.77-90.59,75.59c-3.11,1.88-6.94-0.98-6-4.5c21.03-78.79,16.94-162.19-11.69-238.55
			C361.1,55.52,365.02,52.25,368.31,54.21z M140.72,50.6c34.51-19.2,68.5-28.23,107.99-28.7c27.98-0.33,53.89,4.06,80.19,13.59
			c6.55,2.37,10.07,5.97,12.28,12.58c12.77,38.14,19.34,76.03,20.17,116.25c0.08,3.64-4.32,5.51-6.9,2.94
			C296.74,109.66,222.47,71.5,142.02,58.12C138.25,57.49,137.38,52.46,140.72,50.6z M23.8,245.89c0.63-39.48,9.8-73.44,29.14-107.87
			c13.7-24.39,30.46-44.64,51.87-62.65c5.33-4.49,10.21-5.73,17.04-4.34c39.41,8.01,75.52,21.27,110.76,40.65
			c3.19,1.75,2.62,6.5-0.9,7.44c-78.75,21.18-148.93,66.42-200.75,129.4C28.53,251.47,23.74,249.71,23.8,245.89z M134.47,444.78
			c-33.88-20.28-58.7-45.21-78.85-79.17c-14.27-24.06-23.43-48.7-28.33-76.25c-1.22-6.86,0.14-11.71,4.76-16.93
			c26.65-30.13,56.18-54.77,90.59-75.59c3.11-1.88,6.94,0.98,6,4.5c-21.03,78.79-16.94,162.19,11.69,238.55
			C141.67,443.48,137.75,446.75,134.47,444.78z M362.05,448.4c-34.51,19.2-68.5,28.23-107.99,28.7
			c-27.98,0.33-53.89-4.06-80.19-13.59c-6.55-2.37-10.07-5.97-12.28-12.58c-12.77-38.14-19.34-76.04-20.17-116.25
			c-0.08-3.64,4.32-5.51,6.9-2.94c57.72,57.61,131.99,95.77,212.44,109.15C364.52,441.51,365.39,446.54,362.05,448.4z
			 M397.96,423.63c-5.33,4.49-10.21,5.73-17.04,4.34c-39.41-8.01-75.52-21.27-110.76-40.65c-3.19-1.75-2.62-6.5,0.9-7.44
			c78.75-21.18,148.93-66.42,200.75-129.4c2.43-2.95,7.22-1.19,7.16,2.63c-0.63,39.48-9.8,73.44-29.14,107.87
			C436.12,385.37,419.36,405.62,397.96,423.63z"/>
	</g>
	<linearGradient id="SVGID_3_" gradientUnits="userSpaceOnUse" x1="251.3857" y1="355.1275" x2="251.3857" y2="143.8689">
		<stop  offset="0" style="stop-color:#000000"/>
		<stop  offset="1" style="stop-color:#555555"/>
	</linearGradient>
	<path class="st2" d="M280.41,147.53c-4.95-3.44-9.43-4.36-15.33-3.16c-30.54,6.21-59.29,15.74-87.49,29.01
		c-5.45,2.56-8.49,5.98-10.4,11.69c-9.89,29.55-16.01,59.22-18.62,90.27c-0.5,6,0.94,10.34,4.93,14.86
		c20.64,23.34,43.28,43.48,68.87,61.26c4.95,3.44,9.43,4.36,15.33,3.16c30.54-6.21,59.29-15.74,87.49-29.01
		c5.45-2.56,8.49-5.98,10.4-11.69c9.89-29.55,16.01-59.22,18.62-90.27c0.5-6-0.94-10.34-4.93-14.86
		C328.63,185.45,306,165.31,280.41,147.53z"/>
</g>
</svg>
