<?xml version="1.0" encoding="utf-8"?>
<!-- Generator: Adobe Illustrator 23.0.1, SVG Export Plug-In . SVG Version: 6.00 Build 0)  -->
<svg version="1.1" id="Layer_1" xmlns="http://www.w3.org/2000/svg" xmlns:xlink="http://www.w3.org/1999/xlink" x="0px" y="0px"
	 viewBox="0 0 500 500" style="enable-background:new 0 0 500 500;" xml:space="preserve">
<style type="text/css">
	.st0{fill:#E53247;}
</style>
<g>
	<path class="st0" d="M87.61,151.26c0.29-19.61-3.42-36.49-13.41-51.66c-1.83-2.78-4.01-5.35-6.12-7.94
		c-3.79-4.65-2.69-8.94,3-10.86c22.6-7.62,45.49-14.23,68.77-19.43c12.83-2.86,20.47,2.54,24.53,17.88
		c2.54,9.6,4.04,19.53,3.31,29.48c-1.38,18.69-5.97,36.63-13.16,54c-8.49,20.51-19.08,39.76-32.22,57.61
		c-0.96,1.3-1.22,2.42-0.05,3.6c4.97,5,9.67,10.19,16.87,12.36c2.16,0.65,2.98,0.29,4.22-0.98c15.78-15.99,27.99-34.25,36.97-54.94
		c6.72-15.47,11.51-31.42,14.86-47.79c1.73-8.48,3.14-17.13,3.6-25.89c0.26-4.88,0.9-9.75,0.89-14.68c0-7.04,4.77-9.76,10.72-5.82
		c5,3.31,9.86,6.97,14.29,11.01c16.04,14.64,28.9,31.71,38.16,51.41c5.54,11.79,9.39,24.21,10.69,37.12
		c1.18,11.77-3.34,21.69-13.46,28.39c-15.79,10.44-31.76,20.58-48.99,28.58c-13.07,6.07-26.55,11.06-40.11,15.88
		c-1.58,0.56-3.05,1.26-4.58,1.89c-2.87,1.18-3.43,2.41-1.47,5.27c10.95,15.96,17.64,33.77,21.18,52.65
		c1.81,9.66,2.03,19.62,1.22,29.51c-0.15,1.88-0.45,3.83-2.52,4.3c-2.62,0.6-5.12,0.07-6.66-2.49c-3.08-5.11-6.17-10.22-9.16-15.4
		c-7.38-12.8-16.31-24.39-26.15-35.44c-13.8-15.5-29.86-27.65-48.69-36.29c-10.51-4.82-21.43-7.65-32.93-9.16
		c-16.88-2.22-33.08-0.03-49.14,4.99c-5.8,1.81-11.5-3.89-11.95-11.21c-0.88-14.54,3.13-28.16,7.6-41.69
		c3.28-9.93,5.81-11.24,16.44-11.67c17.87-0.72,35.06,2.66,51.97,7.85c2.82,0.87,3.51-0.43,3.97-2.1
		c2.76-10.11,5.13-20.31,6.41-30.72C87.28,162.5,88.13,156.08,87.61,151.26z"/>
	<path class="st0" d="M498.15,231.67c-2.07-1.72-3.48,0.02-5.05,0.61c-1.21,0.46-2.37,1.26-3.34,2.14
		c-17.03,15.42-35.66,28.75-54.55,41.73c-16.82,11.56-33.6,23.28-52.73,30.86c-8.05,3.19-16.49,4.71-25.01,2.02
		c-5.84-1.85-6.71-5.88-2.84-10.47c4.98-5.91,10.14-11.7,14.7-17.92c3.49-4.77,7.41-9.44,9.04-15.32c1.69-6.09-0.99-8.54-7.09-7.14
		c-6.87,1.58-13.17,4.39-19.32,7.7c-4.12,2.22-8.56,3.68-13.18,4.08c-17.97,1.57-38.69-14.31-42.65-32.21
		c-1.73-7.83-4.2-15.67-8.02-22.87c-3.29-6.21-7.05-6.95-13.07-3.35c-6.07,3.63-11.03,8.68-16.78,12.68
		c-12.69,8.81-25.92,16.57-40.73,21.46c-10.87,3.59-19.71,9.94-23.54,21.33c-2.96,8.79,0.18,14.22,9.3,16.41
		c7.91,1.9,16.01,2.18,24.12,2.02c1.35-0.03,3.03-0.37,3.61,1.15c0.5,1.31-1.08,1.98-1.89,2.73c-2.49,2.32-4.72,4.86-6.52,7.72
		c-2.15,3.42-1.46,5.99,2.24,8.16c9.89,5.82,19.57,11.98,28.59,19.13c2.36,1.87,10.05,1.94,11.89-0.35
		c2.51-3.12,4.97-6.83,2.09-10.91c-2.76-3.91-0.22-4.19,2.48-3.91c4.04,0.43,7.86-0.74,11.15-2.37c4.71-2.34,9.53-3.97,14.62-4.54
		c7.97-0.9,15.92-0.95,23.29,4.13c-5.33,2.35-10.11-1.75-15.18,0.48c-3.87,1.7-8.09,2.84-12.19,4.12
		c-9.68,3.03-15.92,9.29-18.92,18.9c-1.92,6.16-3.8,12.31-7.14,17.93c-3.27,5.5-8.79,9.03-14.12,7.39
		c-10.26-3.15-20.7-6.06-30.03-11.62c-7.23-4.31-12.34-10.69-11.15-19.28c1.11-8.08,2.25-16.12,1.6-24.19
		c-0.39-4.88-1.89-10.08-7.24-12.22c-2.08-0.83-5.85-1.84-4.83,2.73c1.7,7.63,0.59,15.27,0.89,22.89
		c0.22,5.71-0.61,11.09-2.56,16.73c-3.46,9.99-2.63,17.13,8.22,23.21c12.88,7.22,25.51,14.9,38.23,22.41
		c26.66,15.74,52,33.2,73.27,55.99c1.97,2.11,4.33,3.68,6.92,4.89c6.7,3.13,11.6,0.26,11.62-7.03c0.01-3.71-1.09-7.2-3.9-9.96
		c-4.4-4.32-8.74-8.71-13.09-13.08c-2.2-2.21-3.97-5.18-4.97-8.48c4.77,1.29,6.5,6.25,11.26,8.59c-1.81-5.2-2.85-9.63-1.57-14.27
		c2.06-7.48,9.86-12.87,16.04-10.11c14.19,6.35,23.49,18.52,11.85,35.4c-0.05-1.02-0.08-1.84-0.13-2.67
		c-0.42-7.62-6-12.37-13.47-11.47c-5.65,0.68-7.68,5.3-4.69,10.21c2.52,4.16,6.56,6.86,9.55,10.52c3.15,3.85,6.28,3.61,10.06,0.97
		c12.72-8.9,20.07-21.31,23.15-36.21c2.35-11.35,6.78-21.15,15.96-28.68c18.73-15.38,36.25-32.12,53.85-48.76
		c7.42-7.02,14.53-14.36,21.32-22.04c8.15-9.2,16.47-18.22,23.15-28.56c4.72-7.31,7.83-15.33,9.17-23.96
		C500.18,235.19,500.05,233.25,498.15,231.67z M257.18,314.23c-2.14,1.25-4.27,1.82-6.54,0.09c-3.96-3.03-7.77-6.34-12.08-8.77
		c-2.63-1.49-3.46-3.19-2.81-5.62c0.71-2.67,2.88-3.58,5.3-3.16c5.1,0,16.27,8.05,17.08,12.49
		C258.41,310.77,259.31,312.98,257.18,314.23z"/>
</g>
</svg>
