<?xml version="1.0" encoding="utf-8"?>
<!-- Generator: Adobe Illustrator 23.0.1, SVG Export Plug-In . SVG Version: 6.00 Build 0)  -->
<svg version="1.1" id="Layer_1" xmlns="http://www.w3.org/2000/svg" xmlns:xlink="http://www.w3.org/1999/xlink" x="0px" y="0px"
	 viewBox="0 0 500 500" style="enable-background:new 0 0 500 500;" xml:space="preserve">
<style type="text/css">
	.st0{fill:#EC2722;}
</style>
<g>
	<path class="st0" d="M0,483.66c26.24-60.19,62.91-114.05,101.29-166.87c4.9-6.75,10.21-13.25,17.67-17.35
		c3.17-1.74,6.8-3.64,10.4-0.94c3.75,2.81,2.54,6.9,1.27,10.14c-2.68,6.85-5.67,13.65-9.28,20.06
		c-14.04,24.92-29.24,49.21-40.95,75.38c-2.88,6.43-5.42,13.09-7.32,19.87c-2.65,9.47,0.4,12.73,10.2,11.23
		c8.88-1.36,17.17-4.68,25.22-8.65c36.95-18.18,69.32-42.33,95.69-74.09c9.89-11.91,18.46-24.78,20.02-40.83
		c1.41-14.48-3.07-22.68-16.08-29.17c-16.03-7.99-33.5-9.92-51.02-11.43c-23.07-1.99-46.18-1.57-69.29-1.25
		c-6.43,0.09-12.94-0.48-19.29-1.49c-4.12-0.65-9.39-1.6-10.08-6.68c-0.73-5.37,4.63-6.75,8.35-8.4
		c10.46-4.65,21.64-6.94,32.81-9.13c45.31-8.86,90.49-10.46,135.3,2.92c9.45,2.82,18.5,6.73,26.7,12.36
		c16.93,11.61,23.05,28.88,16.86,48.36c-10.99,34.56-32.86,61.7-59.31,85.47c-38.27,34.39-82.94,58.22-130.15,77.68
		c-24.18,9.97-48.54,19.51-74.85,22.4c-4.84,0.53-9.88,1.38-14.14-2.19C0,488.6,0,486.13,0,483.66z"/>
	<path class="st0" d="M344.42,440.78c-27.35-0.85-57.63-4.35-87.74-9.36c-3.9-0.65-7.75-1.99-11.42-3.53
		c-3.46-1.45-6.94-3.71-6.12-8.14c0.74-4.04,4.03-5.84,8.02-6.56c14.33-2.58,28.86-2.36,43.31-3.06c30.15-1.47,60.4-1.3,90.35-5.89
		c6.42-0.98,12.72-2.36,18.65-5c9.18-4.09,12.27-10.35,10.03-20.13c-3-13.06-11.25-23.16-19.25-33.29
		c-19.67-24.91-41.59-47.97-60.44-73.56c-8.97-12.18-17.13-24.78-21.2-39.64c-4.06-14.84-0.31-27.35,10.53-37.93
		c15.84-15.46,36.01-20.73,57.01-23.47c35-4.56,69.45,0.05,103.64,7.36c5.41,1.16,10.75,2.81,15.43,5.94
		c2.61,1.75,5.05,3.96,4.75,7.41c-0.32,3.7-3.46,4.72-6.5,5.59c-7.47,2.14-15.15,2.68-22.85,2.83c-25.57,0.49-51.13,0.56-76.58,3.87
		c-29.49,3.83-36.62,18.04-21.18,43.44c9.83,16.17,23.19,29.53,35.41,43.79c14.64,17.09,29.36,34.11,42.67,52.26
		c7.68,10.47,14.52,21.55,16.89,34.56c3.45,18.9-4.95,35.69-23.02,46.44c-21.12,12.57-44.81,14.63-68.54,15.99
		C366.74,441.24,357.16,440.78,344.42,440.78z"/>
	<path class="st0" d="M209.92,36.24c-10.73-0.61-21.57,1.13-32.19-1.8c-3.89-1.07-8.67-1.78-9.11-6.44
		c-0.46-4.94,4.63-6.12,8.15-7.52c23.78-9.49,48.94-12.15,74.15-13.65c26.87-1.59,53.63-0.23,79.44,8.57
		c37.93,12.94,48.49,38.81,29.69,74.34c-15.61,29.51-39.87,51.45-65.85,71.53c-27.13,20.98-56.06,39.03-88.16,51.57
		c-4.61,1.8-9.37,3.25-14.35,3.23c-6.36-0.01-8.55-3.82-4.71-8.9c3.5-4.62,7.75-8.79,12.2-12.53
		c21.23-17.82,44.33-33.33,64.75-52.17c15.2-14.02,29.96-28.43,41.35-45.88c4.22-6.47,7.85-13.2,9.77-20.78
		c3.16-12.53-0.05-20.1-11.71-25.73c-15.78-7.62-32.93-9.98-50.06-11.86C238.91,36.65,224.45,35.45,209.92,36.24z"/>
</g>
</svg>
