<?xml version="1.0" encoding="utf-8"?>
<!-- Generator: Adobe Illustrator 23.0.1, SVG Export Plug-In . SVG Version: 6.00 Build 0)  -->
<svg version="1.1" id="Layer_1" xmlns="http://www.w3.org/2000/svg" xmlns:xlink="http://www.w3.org/1999/xlink" x="0px" y="0px"
	 viewBox="0 0 500 500" style="enable-background:new 0 0 500 500;" xml:space="preserve">
<g>
	<g>
		<path d="M236.4,408H32.8C18,408,6,396,6,381.3V26.8C6,12,18,0,32.8,0h354.5c14.8,0,26.8,12,26.8,26.8v203.6h-13.4V26.8
			c0-7.4-6-13.4-13.4-13.4H32.8c-7.4,0-13.4,6-13.4,13.4v354.5c0,7.4,6,13.4,13.4,13.4h203.6V408z"/>
	</g>
	<g>
		<path d="M17.5,305.7L8,296.3l105.6-105.6c5.2-5.2,13.7-5.2,18.9,0l43.9,43.9l97.3-103.4c2.5-2.7,6.1-4.2,9.9-4.2
			c3.7,0,7.3,1.6,9.8,4.4l62,68.2l-9.9,9l-62-68.2L176.8,253.8l-53.7-53.7L17.5,305.7z"/>
	</g>
	<g>
		<path d="M166.6,147.2c-18.4,0-33.4-15-33.4-33.4s15-33.4,33.4-33.4s33.4,15,33.4,33.4S185,147.2,166.6,147.2z M166.6,93.6
			c-11.1,0-20.1,9-20.1,20.1s9,20.1,20.1,20.1c11.1,0,20.1-9,20.1-20.1S177.6,93.6,166.6,93.6z"/>
	</g>
	<g>
		<g>
			<path d="M206.9,498.5c-3.9,0-7.6-1.5-10.5-4.4c-4.3-4.3-5.6-10.5-3.3-16.2l28.8-71.6l1-1l196-196c6-6,13.9-9.2,22.3-9.2
				c8.4,0,16.4,3.3,22.3,9.2l17.6,17.6c12.3,12.3,12.3,32.3,0,44.6l-197,197l-71.6,28.8C210.7,498.2,208.8,498.5,206.9,498.5z
				 M233.3,413.9l-27.8,69.1c-0.3,0.7-0.1,1.2,0.4,1.7c0.5,0.5,1.1,0.6,1.7,0.4l69.1-27.8l195-195c7.1-7.1,7.1-18.6,0-25.7
				l-17.6-17.6c-6.9-6.9-18.9-6.9-25.7,0L233.3,413.9z"/>
		</g>
		<g>
			<rect x="249.8" y="392.5" transform="matrix(0.7071 -0.7071 0.7071 0.7071 -231.7473 308.4994)" width="13.4" height="82.9"/>
		</g>
	</g>
</g>
</svg>
