<?xml version="1.0" encoding="utf-8"?>
<!-- Generator: Adobe Illustrator 23.0.1, SVG Export Plug-In . SVG Version: 6.00 Build 0)  -->
<svg version="1.1" id="Layer_1" xmlns="http://www.w3.org/2000/svg" xmlns:xlink="http://www.w3.org/1999/xlink" x="0px" y="0px"
	 viewBox="0 0 500 500" style="enable-background:new 0 0 500 500;" xml:space="preserve">
<g>
	<g>
		<path d="M196.51,409.23H33.96c-14.8,0-26.83-12.04-26.83-26.83V26.83C7.13,12.04,19.17,0,33.96,0h355.56
			c14.8,0,26.83,12.04,26.83,26.83v151.21h-13.42V26.83c0-7.4-6.02-13.42-13.42-13.42H33.96c-7.4,0-13.42,6.02-13.42,13.42v355.56
			c0,7.4,6.02,13.42,13.42,13.42h162.55V409.23z"/>
	</g>
	<g>
		<path d="M18.58,306.63l-9.49-9.49L115.04,191.2c5.23-5.23,13.74-5.23,18.97,0l44.04,44.04l97.63-103.73
			c2.56-2.72,6.15-4.29,9.89-4.22c3.73,0.03,7.3,1.63,9.81,4.39l62.21,68.43l-9.93,9.03l-62.21-68.43L178.35,254.5l-53.82-53.82
			L18.58,306.63z"/>
	</g>
	<g>
		<path d="M168.14,147.59c-18.49,0-33.54-15.05-33.54-33.54s15.05-33.54,33.54-33.54s33.54,15.05,33.54,33.54
			S186.63,147.59,168.14,147.59z M168.14,93.92c-11.1,0-20.13,9.03-20.13,20.13s9.03,20.13,20.13,20.13
			c11.1,0,20.13-9.03,20.13-20.13S179.23,93.92,168.14,93.92z"/>
	</g>
	<g>
		<g>
			<path d="M208.56,500c-3.88,0-7.64-1.53-10.54-4.44c-4.33-4.34-5.6-10.55-3.31-16.24l28.93-71.79l0.97-0.97L421.2,209.97
				c5.97-5.98,13.93-9.27,22.39-9.27s16.41,3.29,22.39,9.27l17.64,17.64c12.34,12.35,12.34,32.43,0,44.77L286.06,469.95
				l-71.79,28.93C212.39,499.63,210.46,500,208.56,500z M235.06,415.08l-27.91,69.26c-0.26,0.66-0.14,1.24,0.36,1.74
				c0.5,0.5,1.09,0.62,1.74,0.35l69.26-27.91L474.13,262.9c7.11-7.11,7.11-18.68,0-25.8l-17.64-17.64c-6.89-6.89-18.91-6.89-25.8,0
				L235.06,415.08z"/>
		</g>
		<g>
			
				<rect x="251.62" y="393.67" transform="matrix(0.7071 -0.7071 0.7071 0.7071 -232.1184 310.1624)" width="13.42" height="83.18"/>
		</g>
	</g>
</g>
</svg>
