<?xml version="1.0" encoding="utf-8"?>
<!-- Generator: Adobe Illustrator 23.0.1, SVG Export Plug-In . SVG Version: 6.00 Build 0)  -->
<svg version="1.1"
	 id="svg2" xmlns:cc="http://creativecommons.org/ns#" xmlns:dc="http://purl.org/dc/elements/1.1/" xmlns:inkscape="http://www.inkscape.org/namespaces/inkscape" xmlns:rdf="http://www.w3.org/1999/02/22-rdf-syntax-ns#" xmlns:sodipodi="http://sodipodi.sourceforge.net/DTD/sodipodi-0.dtd" xmlns:svg="http://www.w3.org/2000/svg"
	 xmlns="http://www.w3.org/2000/svg" xmlns:xlink="http://www.w3.org/1999/xlink" x="0px" y="0px" viewBox="0 0 791.3 512"
	 style="enable-background:new 0 0 791.3 512;" xml:space="preserve">
<style type="text/css">
	.st0{fill:#264DE4;}
	.st1{fill:#2965F1;}
	.st2{fill:#EBEBEB;}
	.st3{fill:#FFFFFF;}
	.st4{fill:#E44D26;}
	.st5{fill:#F16529;}
</style>
<sodipodi:namedview  bordercolor="#666666" borderopacity="1.0" fit-margin-bottom="0" fit-margin-left="0" fit-margin-right="0" fit-margin-top="0" id="base" inkscape:current-layer="layer1" inkscape:cx="-276.49014" inkscape:cy="244.10462" inkscape:document-units="px" inkscape:pageopacity="0.0" inkscape:pageshadow="2" inkscape:window-height="938" inkscape:window-maximized="1" inkscape:window-width="1280" inkscape:window-x="0" inkscape:window-y="31" inkscape:zoom="0.35" pagecolor="#ffffff" showgrid="false">
	</sodipodi:namedview>
<g>
	<g>
		<polygon id="polygon2989" class="st0" points="609.7,512 461.6,470.9 428.6,100.6 791.3,100.6 758.3,470.8 		"/>
		<polygon id="polygon2991" class="st1" points="730,447.2 758.2,130.9 609.9,130.9 609.9,480.5 		"/>
		<polygon id="polygon2993" class="st2" points="504.2,268.2 508.3,313.6 609.9,313.6 609.9,268.2 		"/>
		<polygon id="polygon2995" class="st2" points="496.1,176.3 500.2,221.7 609.9,221.7 609.9,176.3 609.8,176.3 		"/>
		<polygon id="polygon2997" class="st2" points="609.9,386.2 609.7,386.2 559.2,372.5 555.9,336.3 531.4,336.3 510.3,336.3 
			516.7,407.6 609.7,433.5 609.9,433.4 		"/>
		<polygon id="polygon3005" class="st3" points="715.3,268.2 723.5,176.3 609.8,176.3 609.8,221.7 673.8,221.7 669.6,268.2 
			609.8,268.2 609.8,313.6 665.7,313.6 660.4,372.5 609.8,386.2 609.8,433.4 702.9,407.6 703.6,400 714.2,280.4 		"/>
	</g>
	<g>
		<polygon id="polygon3028" class="st4" points="362.6,100.6 329.5,470.8 181,512 32.9,470.9 -0.2,100.6 		"/>
		<polygon id="polygon3030" class="st5" points="181.2,480.5 301.2,447.2 329.5,130.9 181.2,130.9 		"/>
		<polygon id="polygon3032" class="st2" points="117,221.7 181.2,221.7 181.2,176.3 181.1,176.3 67.3,176.3 68.4,188.5 79.6,313.6 
			181.2,313.6 181.2,268.2 121.1,268.2 		"/>
		<polygon id="polygon3034" class="st2" points="127.2,336.3 102.6,336.3 81.6,336.3 88,407.6 181,433.5 181.2,433.4 181.2,386.2 
			181,386.2 130.4,372.5 		"/>
		<polygon id="polygon3044" class="st3" points="181.1,313.6 237,313.6 231.7,372.5 181.1,386.2 181.1,433.4 274.1,407.6 274.8,400 
			285.5,280.4 286.6,268.2 274.4,268.2 181.1,268.2 		"/>
		<polygon id="polygon3046" class="st3" points="181.1,221.6 181.1,221.7 290.6,221.7 290.6,221.7 290.7,221.7 291.7,211.5 
			293.7,188.5 294.8,176.3 181.1,176.3 181.1,204.5 		"/>
	</g>
</g>
</svg>
